<?xml version="1.0" encoding="UTF-8" standalone="no"?>
<!-- Created with Inkscape (http://www.inkscape.org/) -->

<svg
   xmlns:dc="http://purl.org/dc/elements/1.1/"
   xmlns:cc="http://creativecommons.org/ns#"
   xmlns:rdf="http://www.w3.org/1999/02/22-rdf-syntax-ns#"
   xmlns:svg="http://www.w3.org/2000/svg"
   xmlns="http://www.w3.org/2000/svg"
   xmlns:sodipodi="http://sodipodi.sourceforge.net/DTD/sodipodi-0.dtd"
   xmlns:inkscape="http://www.inkscape.org/namespaces/inkscape"
   width="160"
   height="160"
   id="svg2163"
   sodipodi:version="0.32"
   inkscape:version="0.48.3.1 r9886"
   sodipodi:docname="timetunnel.svg"
   inkscape:output_extension="org.inkscape.output.svg.inkscape"
   inkscape:export-filename="logo-160.png"
   inkscape:export-xdpi="90"
   inkscape:export-ydpi="90"
   version="1.1">
  <defs
     id="defs2165">
    <mask
       maskUnits="userSpaceOnUse"
       id="mask3777">
      <path
         sodipodi:type="arc"
         style="fill:#ffffff;fill-opacity:1;fill-rule:evenodd;stroke:none"
         id="path3779"
         sodipodi:cx="227.38106"
         sodipodi:cy="276.2963"
         sodipodi:rx="11.279814"
         sodipodi:ry="12.707638"
         d="m 238.66087,276.2963 a 11.279814,12.707638 0 1 1 -22.55963,0 11.279814,12.707638 0 1 1 22.55963,0 z"
         transform="matrix(1.2594937,0,0,1.1741574,-58.646989,845.38541)" />
    </mask>
  </defs>
  <sodipodi:namedview
     id="base"
     pagecolor="#ffffff"
     bordercolor="#666666"
     borderopacity="1.0"
     gridtolerance="10000"
     guidetolerance="10"
     objecttolerance="10"
     inkscape:pageopacity="0.0"
     inkscape:pageshadow="2"
     inkscape:zoom="2.1367826"
     inkscape:cx="20.112709"
     inkscape:cy="109.38376"
     inkscape:document-units="px"
     inkscape:current-layer="layer1"
     inkscape:window-width="1476"
     inkscape:window-height="1032"
     inkscape:window-x="236"
     inkscape:window-y="192"
     showgrid="false"
     inkscape:window-maximized="0" />
  <metadata
     id="metadata2168">
    <rdf:RDF>
      <cc:Work
         rdf:about="">
        <dc:format>image/svg+xml</dc:format>
        <dc:type
           rdf:resource="http://purl.org/dc/dcmitype/StillImage" />
        <dc:title />
      </cc:Work>
    </rdf:RDF>
  </metadata>
  <g
     inkscape:label="Layer 1"
     inkscape:groupmode="layer"
     id="layer1"
     transform="translate(0,-892.36218)">
    <path
       sodipodi:type="arc"
       style="fill:#ff0101;fill-opacity:1;fill-rule:evenodd;stroke:none"
       id="path2987"
       sodipodi:cx="25.240326"
       sodipodi:cy="31.129789"
       sodipodi:rx="42.36372"
       sodipodi:ry="43.920391"
       d="m 67.604046,31.129789 c 0,24.256563 -18.966884,43.920391 -42.36372,43.920391 -23.3968365,0 -42.36372,-19.663828 -42.36372,-43.920391 0,-24.2565618 18.9668835,-43.920391 42.36372,-43.920391 23.396836,0 42.36372,19.6638292 42.36372,43.920391 z"
       transform="matrix(1.8214774,0,0,1.8214774,34.025317,915.65997)" />
    <path
       style="fill:#000000"
       d="m 246.6708,1185.487 c -164.4472,-88.7499 -82.2236,-44.3749 0,0 z m -20.46095,7.8606 c 4.1361,-0.6869 7.27985,-1.9782 10.54818,-4.3329 5.08665,-3.6648 8.50455,-9.0617 9.93384,-15.6857 0.26688,-1.2369 0.33115,-2.1108 0.3419,-4.6496 0.0151,-3.5785 -0.21641,-5.2327 -1.12208,-8.0164 -17.32963,-33.6645 -64.35563,18.1737 -26.13314,32.6357 1.39776,0.2318 5.15782,0.2604 6.4313,0.049 z m -8.6093,-0.429 c 3.00152,3.1092 -2.66519,0.015 -3.79864,-0.4754 -2.55596,-1.1066 -2.99056,-2.1802 -4.9809,-3.969 -7.46621,-8.0972 -8.82117,-21.1784 -4.66713,-29.8295 9.53486,-17.546 36.01742,-9.6912 40.83185,2.6876 0.79925,2.4561 1.09545,4.4419 1.08398,7.267 -0.0119,2.9317 -0.32174,4.9267 -1.17027,7.5354 -1.17096,3.5999 -2.92356,6.4637 -5.64519,9.2244 -3.2142,3.2603 -7.40816,5.5216 -11.75643,6.3387 -1.56425,0.294 -8.28805,1.4057 -9.89727,1.2208 z m 9.42857,-2.5155 c 2.78825,-0.3253 6.16126,-1.6657 8.82678,-3.5079 4.33725,-2.9975 7.63699,-7.9556 8.81514,-13.2456 0.35594,-1.5982 0.39579,-1.8846 0.5017,-3.6074 0.29727,-4.8358 -1.21731,-10.0362 -4.08394,-14.0227 -0.66799,-0.9289 -3.21433,-3.5875 -3.89312,-4.0647 -2.53414,-1.7815 -4.13536,-2.6251 -6.38366,-3.3631 -2.16932,-0.7121 -3.00214,-0.8274 -5.9896,-0.8296 -2.39812,0 -4.59342,1.5575 -5.98513,1.8726 -7.9886,1.81 -12.61137,6.6764 -14.44608,15.0805 -0.47843,2.1915 -0.54619,6.2474 -0.13855,8.2931 0.32935,1.6528 1.26531,2.48 1.63611,3.4821 3.44554,9.3124 11.49834,15.0377 21.14035,13.9127 z m -5.2803,-1.5904 c -2.23446,-0.42 -5.75979,-1.9004 -7.17176,-3.0118 -3.26115,-2.5667 -4.74094,-4.3178 -6.22526,-7.3666 -1.02085,-2.0968 -1.52889,-3.7046 -1.90126,-6.0169 -0.21997,-1.3661 -0.20766,-4.8731 0.0221,-6.2826 0.17967,-1.1025 0.68485,-3.0696 0.9317,-3.6281 0.078,-0.1763 0.30161,-0.7174 0.49701,-1.2024 1.08873,-2.7024 3.14235,-5.4401 5.56142,-7.4139 2.92307,-2.385 5.94999,-3.701 9.72479,-4.2279 1.70683,-0.2383 2.20582,-0.2472 3.99923,-0.071 2.17737,0.2134 4.77522,0.9481 6.55147,1.853 2.4622,1.2542 5.2571,3.6426 6.82932,5.8358 1.54261,2.152 2.58034,4.4519 3.26265,7.2309 0.32795,1.3358 0.37392,1.8979 0.37364,4.5694 -2.7e-4,2.6636 -0.0454,3.2175 -0.3593,4.4091 -1.10401,4.1911 -2.72697,7.1177 -5.47829,9.8787 -2.96411,2.9747 -6.28218,4.7552 -10.13469,5.4386 -1.56858,0.2783 -5.01752,0.2815 -6.48273,0.01 z m 7.38825,-1.5477 c 2.77277,-0.5785 5.692,-1.9939 7.73867,-3.7521 5.08722,-4.3702 7.42336,-10.9212 6.29024,-17.6392 -0.22356,-1.3254 -0.88528,-3.4821 -1.35281,-4.4091 -0.11119,-0.2204 -0.20261,-0.458 -0.20313,-0.5278 -4.4e-4,-0.07 -0.0714,-0.2142 -0.15752,-0.3207 -0.0861,-0.1065 -0.51625,-0.7519 -0.95585,-1.4342 -0.73877,-1.1467 -2.40095,-3.0167 -3.54338,-3.9865 -3.01552,-2.5598 -7.33772,-3.977 -11.50919,-3.7737 -2.12951,0.1038 -3.3957,0.361 -5.30639,1.0776 -5.86642,2.2001 -10.298,7.7564 -11.24262,14.0959 -1.46386,9.824 4.63018,18.9443 13.80275,20.6573 2.09508,0.3912 4.60053,0.3961 6.43922,0.012 z m -5.01507,-1.2879 c -2.57573,-0.4464 -5.48906,-1.8779 -7.68864,-3.7777 -2.01188,-1.7377 -3.99847,-4.9889 -4.88122,-7.9886 -0.39643,-1.3471 -0.42465,-1.6453 -0.42465,-4.4892 0,-2.8683 0.0254,-3.1306 0.43418,-4.4893 1.99148,-6.6186 7.20016,-11.1491 13.73362,-11.9454 7.98355,-0.9732 15.48202,4.5816 17.10232,12.6691 0.39022,1.9478 0.42094,4.9288 0.069,6.6983 -1.33423,6.7091 -6.50823,12.0221 -12.90583,13.2526 -1.28285,0.2467 -4.2027,0.2844 -5.43881,0.07 z m 7.89709,-1.9672 c 2.34442,-0.8118 3.76148,-1.703 5.50685,-3.4636 0.83183,-0.8391 1.7832,-1.9585 2.11415,-2.4876 3.69201,-5.9023 3.14612,-13.4181 -1.33594,-18.3935 -4.88755,-5.4255 -13.02582,-6.1946 -18.84084,-1.7804 -3.89795,2.9589 -5.96094,7.2001 -5.91355,12.1574 0.0211,2.2065 0.0688,2.5639 0.56071,4.2044 0.58567,1.9531 1.6536,3.9502 2.92359,5.4671 3.71443,4.4368 9.65753,6.1407 14.98503,4.2962 z m -5.9357,-0.9753 c -3.24298,-0.6975 -6.16017,-2.6942 -7.87991,-5.3938 -5.70154,-8.9498 0.37882,-20.7121 10.71709,-20.7318 3.49586,-0.01 6.24455,1.185 8.82678,3.8267 1.72258,1.7623 2.65307,3.4444 3.34078,6.0392 0.38628,1.4575 0.37945,4.8026 -0.0128,6.3136 -0.76822,2.9586 -2.57403,5.7733 -4.84341,7.5496 -1.10431,0.8644 -2.83495,1.7597 -3.87617,2.0054 -0.41555,0.098 -1.10062,0.279 -1.52235,0.4021 -0.93933,0.2741 -3.4511,0.2683 -4.74995,-0.011 z m 7.02469,-1.7363 c 0.56929,-0.2186 1.33178,-0.5514 1.69442,-0.7395 0.36264,-0.1882 0.65934,-0.2909 0.65934,-0.2281 0,0.063 0.0887,0 0.19703,-0.1291 0.10837,-0.1337 0.61212,-0.5955 1.11946,-1.0261 1.483,-1.2588 2.59688,-2.8932 3.38357,-4.9647 0.82814,-2.1808 0.87651,-5.6488 0.10844,-7.776 -0.73843,-2.0452 -1.28852,-2.9443 -2.71038,-4.4304 -3.847,-4.0206 -10.1767,-4.3028 -14.74893,-0.6575 -3.75692,2.9952 -5.21036,8.4601 -3.49051,13.1243 1.49817,4.0629 4.98251,6.8892 9.04838,7.3394 1.44081,0.1595 3.5958,-0.073 4.73918,-0.5123 z m -4.20251,-0.9991 c -2.00197,-0.4295 -3.45135,-1.2447 -4.95591,-2.7873 -1.7887,-1.834 -2.69284,-4.1046 -2.6887,-6.7521 0.005,-3.0112 1.08489,-5.5589 3.22143,-7.598 1.6932,-1.616 4.25299,-2.5207 6.88131,-2.4322 1.52304,0.051 2.34984,0.2714 4.01933,1.0696 1.16036,0.5549 3.20285,2.6914 3.82375,3.9998 1.32264,2.7873 1.45736,5.6262 0.39528,8.3291 -1.75792,4.4738 -6.32525,7.1088 -10.69649,6.1711 z m 5.34639,-1.5717 c 2.11764,-0.7819 3.61329,-2.0673 4.57371,-3.9308 0.83744,-1.6249 1.10328,-2.866 0.99287,-4.6352 -0.26194,-4.1975 -3.27482,-7.3182 -7.27269,-7.533 -3.30463,-0.1776 -6.21126,1.5366 -7.6508,4.5123 -2.69232,5.5652 1.01001,11.9097 6.97374,11.9506 1.05892,0.01 1.60276,-0.076 2.38317,-0.3639 z m -2.65183,-1.1315 c -3.22435,-0.7976 -5.43094,-4.2248 -4.81137,-7.4729 0.41882,-2.1957 1.67064,-3.9255 3.5387,-4.89 1.97296,-1.0186 4.1103,-0.9823 6.0208,0.1023 2.25947,1.2827 3.5216,4.079 3.05804,6.7751 -0.67078,3.9014 -4.19593,6.3785 -7.80617,5.4855 z m 4.37657,-1.4733 c 1.04523,-0.3623 2.06422,-1.3443 2.64929,-2.5532 0.42225,-0.8724 0.49616,-1.2036 0.49616,-2.2229 0,-0.9704 -0.0788,-1.36 -0.41506,-2.0527 -0.51883,-1.0687 -0.87557,-1.6929 -0.87862,-1.5374 -0.001,0.066 -0.3159,-0.1243 -0.69917,-0.4219 -1.29613,-1.0063 -3.24105,-1.1561 -4.75883,-0.3663 -2.87091,1.4938 -3.62513,5.3043 -1.54024,7.7818 0.5232,0.6218 1.41859,1.2305 2.18849,1.4878 0.5987,0.2001 2.2317,0.1365 2.95798,-0.1152 z m -0.95059,-1.1934 c -1.86484,-0.4269 -2.95388,-2.6745 -2.18421,-4.5078 0.22309,-0.5314 1.63825,-1.9924 1.78517,-1.843 0.0342,0.035 0.34724,0 0.69561,-0.082 1.90283,-0.4349 3.83155,1.5186 3.55677,3.6025 -0.23907,1.8129 -2.1536,3.2189 -3.85334,2.8298 z m 3.12741,-1.7483 c 1.33636,-1.3593 -0.43771,-3.6194 -1.94865,-2.4825 -0.73989,0.5568 -0.92246,1.3315 -0.5066,2.1495 0.30335,0.5967 0.64217,0.7907 1.39131,0.7968 0.46036,0 0.71231,-0.1061 1.06394,-0.4638 z"
       id="path2993"
       inkscape:connector-curvature="0"
       sodipodi:nodetypes="cccssccccccccccsssccsssscssccsscsccscccsscccccsscccccssccccsscsccccsssccscccccscsssccccccssccccccccscccccsscccccscccsccsscscccscsscccsccccccccscccccccscc"
       mask="url(#mask3777)"
       transform="matrix(4.8878219,0,0,4.8878219,-1031.8882,-4745.7512)" />
    <g
       id="g3786"
       transform="matrix(0.21132786,0,0,0.19779605,65.806933,788.63389)"
       style="stroke:none">
      <path
         transform="matrix(1.7143317,0,0,1.7143317,211.8965,918.9954)"
         d="m 67.604046,31.129789 c 0,24.256563 -18.966884,43.920391 -42.36372,43.920391 -23.3968365,0 -42.36372,-19.663828 -42.36372,-43.920391 0,-24.2565618 18.9668835,-43.920391 42.36372,-43.920391 23.396836,0 42.36372,19.6638292 42.36372,43.920391 z"
         sodipodi:ry="43.920391"
         sodipodi:rx="42.36372"
         sodipodi:cy="31.129789"
         sodipodi:cx="25.240326"
         id="path3788"
         style="fill:#ff0101;fill-opacity:1;fill-rule:evenodd;stroke:none"
         sodipodi:type="arc" />
      <g
         id="g3790"
         style="font-size:79.63437653px;font-style:normal;font-variant:normal;font-weight:normal;font-stretch:normal;text-align:start;line-height:125%;letter-spacing:0px;word-spacing:0px;writing-mode:lr-tb;text-anchor:start;fill:#ffffff;fill-opacity:1;stroke:none;font-family:Standard Symbols L;-inkscape-font-specification:Standard Symbols L"
         transform="matrix(2.4171623,0,0,2.6623019,-66.427863,-1492.2999)">
        <path
           sodipodi:nodetypes="ccscsscccsscccccsscc"
           inkscape:connector-curvature="0"
           id="path3792"
           d="m 115.21589,921.29874 c 0.87598,-2.38903 1.91123,-4.37989 3.10574,-5.89294 1.11488,-1.35379 2.15013,-1.75196 4.30026,-1.75196 l 5.3931,0 c -1.19452,8.75977 -1.25212,14.73236 -1.25212,19.66969 0,8.52087 2.94648,13.61748 7.88381,13.61748 3.18537,0 6.37075,-2.3094 7.6449,-5.57441 0.95561,-2.30939 1.27415,-4.53916 1.43342,-8.28197 l -1.99086,0 c -0.63708,4.53915 -1.75196,6.13184 -4.22062,6.13184 -3.50391,0 -6.21149,-3.34464 -6.21149,-7.6449 0,-1.27414 0.15927,-3.74281 0.39818,-6.53001 0.0796,-0.79635 0.2389,-3.18538 0.39817,-5.73368 0.2389,-3.0261 0.2389,-3.82245 0.4778,-5.65404 l 14.42398,0 -1.36394,-7.56527 -18.077,0 c -4.14099,0 -6.60966,1.03525 -9.15795,3.82245 -2.5483,2.7872 -3.90209,5.81332 -5.25587,11.38772 l 2.07049,0"
           style="stroke:none" />
      </g>
    </g>
    <text
       transform="scale(0.95284939,1.0494838)"
       sodipodi:linespacing="125%"
       id="text3757"
       y="829.78638"
       x="253.24269"
       style="font-size:79.63437653px;font-style:normal;font-variant:normal;font-weight:normal;font-stretch:normal;text-align:start;line-height:125%;letter-spacing:0px;word-spacing:0px;writing-mode:lr-tb;text-anchor:start;fill:#000000;fill-opacity:1;stroke:none;font-family:Standard Symbols L;-inkscape-font-specification:Standard Symbols L"
       xml:space="preserve"><tspan
         y="829.78638"
         x="253.24269"
         id="tspan3759"
         sodipodi:role="line">τ</tspan></text>
    <g
       id="g3781">
      <path
         sodipodi:type="arc"
         style="fill:#ff0101;fill-opacity:1;fill-rule:evenodd;stroke:#ffffff;stroke-width:5.49018606000000009;stroke-miterlimit:4;stroke-opacity:1;stroke-dasharray:none"
         id="path3764"
         sodipodi:cx="25.240326"
         sodipodi:cy="31.129789"
         sodipodi:rx="42.36372"
         sodipodi:ry="43.920391"
         d="m 67.604046,31.129789 c 0,24.256563 -18.966884,43.920391 -42.36372,43.920391 -23.3968365,0 -42.36372,-19.663828 -42.36372,-43.920391 0,-24.2565618 18.9668835,-43.920391 42.36372,-43.920391 23.396836,0 42.36372,19.6638292 42.36372,43.920391 z"
         transform="matrix(1.7143317,0,0,1.7143317,211.8965,918.9954)" />
      <g
         transform="matrix(2.4171623,0,0,2.6623019,-66.427863,-1492.2999)"
         style="font-size:79.63437653px;font-style:normal;font-variant:normal;font-weight:normal;font-stretch:normal;text-align:start;line-height:125%;letter-spacing:0px;word-spacing:0px;writing-mode:lr-tb;text-anchor:start;fill:#ffffff;fill-opacity:1;stroke:none;font-family:Standard Symbols L;-inkscape-font-specification:Standard Symbols L"
         id="g3768">
        <path
           d="m 115.21589,921.29874 c 0.87598,-2.38903 1.91123,-4.37989 3.10574,-5.89294 1.11488,-1.35379 2.15013,-1.75196 4.30026,-1.75196 l 5.3931,0 c -1.19452,8.75977 -1.25212,14.73236 -1.25212,19.66969 0,8.52087 2.94648,13.61748 7.88381,13.61748 3.18537,0 6.37075,-2.3094 7.6449,-5.57441 0.95561,-2.30939 1.27415,-4.53916 1.43342,-8.28197 l -1.99086,0 c -0.63708,4.53915 -1.75196,6.13184 -4.22062,6.13184 -3.50391,0 -6.21149,-3.34464 -6.21149,-7.6449 0,-1.27414 0.15927,-3.74281 0.39818,-6.53001 0.0796,-0.79635 0.2389,-3.18538 0.39817,-5.73368 0.2389,-3.0261 0.2389,-3.82245 0.4778,-5.65404 l 14.42398,0 -1.36394,-7.56527 -18.077,0 c -4.14099,0 -6.60966,1.03525 -9.15795,3.82245 -2.5483,2.7872 -3.90209,5.81332 -5.25587,11.38772 l 2.07049,0"
           id="path3770"
           inkscape:connector-curvature="0"
           sodipodi:nodetypes="ccscsscccsscccccsscc" />
      </g>
    </g>
  </g>
</svg>
